<svg width="926.85" height="140.25" viewBox="0 0 926.85 140.25" xmlns="http://www.w3.org/2000/svg"><g id="svgGroup" stroke-linecap="round" fill-rule="evenodd" font-size="9pt" stroke="#20ffe9" stroke-width="1mm" fill="#e7ff2e" style="stroke:#20ffe9;stroke-width:1mm;fill:#e7ff2e"><path d="M 723.9 107.1 L 723.9 32.4 L 742.2 32.4 L 742.2 44.7 L 754.35 32.4 L 773.25 32.4 L 783.45 42.75 L 793.65 32.4 L 819.75 32.4 L 835.8 48.6 L 835.8 107.1 L 816 107.1 L 816 54.45 L 810.9 49.2 L 798.3 49.2 L 790.35 57.15 L 790.35 107.1 L 771.15 107.1 L 771.15 54.15 L 766.35 49.2 L 757.35 49.2 L 743.7 63 L 743.7 107.1 L 723.9 107.1 Z M 16.2 107.1 L 0 90.9 L 0 75.9 L 20.1 75.9 L 20.1 84.75 L 25.05 89.7 L 56.1 89.7 L 61.2 84.6 L 61.2 67.2 L 56.25 62.25 L 16.5 62.25 L 0.3 46.05 L 0.3 18.3 L 16.5 2.1 L 63.9 2.1 L 80.1 18.3 L 80.1 33.45 L 60 33.45 L 60 24.45 L 55.05 19.5 L 25.35 19.5 L 20.4 24.45 L 20.4 39.9 L 25.35 44.85 L 65.1 44.85 L 81.3 61.05 L 81.3 90.6 L 64.8 107.1 L 16.2 107.1 Z M 469.65 32.4 L 489.45 32.4 L 489.45 124.2 L 473.25 140.25 L 433.95 140.25 L 420 126.45 L 420 116.25 L 439.8 116.25 L 439.8 120.75 L 442.65 123.75 L 464.55 123.75 L 469.65 118.5 L 469.65 96 L 458.55 107.1 L 433.8 107.1 L 417.75 90.9 L 417.75 32.4 L 437.55 32.4 L 437.55 85.05 L 442.65 90.3 L 455.7 90.3 L 469.65 75.45 L 469.65 32.4 Z M 334.95 107.1 L 334.95 0 L 354.75 0 L 354.75 59.85 L 367.8 59.85 L 386.85 32.4 L 408.75 32.4 L 383.85 68.4 L 410.25 107.1 L 388.35 107.1 L 367.35 76.65 L 354.75 76.65 L 354.75 107.1 L 334.95 107.1 Z M 650.25 107.1 L 634.5 91.35 L 634.5 32.4 L 654.3 32.4 L 654.3 85.2 L 659.4 90.3 L 671.4 90.3 L 686.1 75.6 L 686.1 32.4 L 705.9 32.4 L 705.9 107.1 L 687.6 107.1 L 687.6 94.35 L 674.7 107.1 L 650.25 107.1 Z M 198.9 107.1 L 185.1 93.3 L 185.1 76.2 L 198.9 62.4 L 236.85 62.4 L 236.85 52.95 L 232.2 48.3 L 209.7 48.3 L 205.2 52.95 L 205.2 57.15 L 185.7 57.15 L 185.7 48.6 L 201.75 32.4 L 240.3 32.4 L 256.35 48.6 L 256.35 107.1 L 238.5 107.1 L 238.5 96.45 L 227.4 107.1 L 198.9 107.1 Z M 560.25 107.1 L 542.25 88.95 L 542.25 69.45 L 562.05 69.45 L 562.05 82.05 L 569.7 89.7 L 589.65 89.7 L 596.85 82.65 L 596.85 2.1 L 617.25 2.1 L 617.25 89.55 L 599.7 107.1 L 560.25 107.1 Z M 97.05 138.9 L 97.05 32.4 L 115.35 32.4 L 115.35 43.35 L 126.3 32.4 L 155.4 32.4 L 170.85 48 L 170.85 91.5 L 155.4 107.1 L 126.45 107.1 L 116.85 99.15 L 116.85 138.9 L 97.05 138.9 Z M 853.05 138.9 L 853.05 32.4 L 871.35 32.4 L 871.35 43.35 L 882.3 32.4 L 911.4 32.4 L 926.85 48 L 926.85 91.5 L 911.4 107.1 L 882.45 107.1 L 872.85 99.15 L 872.85 138.9 L 853.05 138.9 Z M 273.6 107.1 L 273.6 32.4 L 291.9 32.4 L 291.9 44.85 L 303.9 32.4 L 325.2 32.4 L 325.2 49.2 L 307.95 49.2 L 293.4 64.2 L 293.4 107.1 L 273.6 107.1 Z M 128.7 90.3 L 145.8 90.3 L 151.05 85.05 L 151.05 54.45 L 145.8 49.2 L 128.85 49.2 L 116.85 61.35 L 116.85 79.65 L 128.7 90.3 Z M 884.7 90.3 L 901.8 90.3 L 907.05 85.05 L 907.05 54.45 L 901.8 49.2 L 884.85 49.2 L 872.85 61.35 L 872.85 79.65 L 884.7 90.3 Z M 208.35 91.8 L 226.05 91.8 L 236.85 81.45 L 236.85 76.5 L 208.65 76.5 L 204.6 80.55 L 204.6 88.05 L 208.35 91.8 Z" vector-effect="non-scaling-stroke"/></g></svg>